<?xml version="1.0" encoding="UTF-8" standalone="no"?>
<!-- Created with Inkscape (http://www.inkscape.org/) -->

<svg
   xmlns:dc="http://purl.org/dc/elements/1.1/"
   xmlns:cc="http://creativecommons.org/ns#"
   xmlns:rdf="http://www.w3.org/1999/02/22-rdf-syntax-ns#"
   xmlns:svg="http://www.w3.org/2000/svg"
   xmlns="http://www.w3.org/2000/svg"
   xmlns:sodipodi="http://sodipodi.sourceforge.net/DTD/sodipodi-0.dtd"
   xmlns:inkscape="http://www.inkscape.org/namespaces/inkscape"
   width="800"
   height="800"
   id="svg2987"
   version="1.1"
   inkscape:version="0.48.3.1 r9886"
   sodipodi:docname="all_states.svg">
  <defs
     id="defs2989" />
  <sodipodi:namedview
     id="base"
     pagecolor="#ffffff"
     bordercolor="#666666"
     borderopacity="1.0"
     inkscape:pageopacity="0.0"
     inkscape:pageshadow="2"
     inkscape:zoom="0.70000001"
     inkscape:cx="14.992478"
     inkscape:cy="324.18706"
     inkscape:document-units="px"
     inkscape:current-layer="layer1"
     showgrid="false"
     inkscape:window-width="1920"
     inkscape:window-height="1126"
     inkscape:window-x="-4"
     inkscape:window-y="51"
     inkscape:window-maximized="1"
     fit-margin-top="0"
     fit-margin-left="0"
     fit-margin-right="0"
     fit-margin-bottom="0" />
  <metadata
     id="metadata2992">
    <rdf:RDF>
      <cc:Work
         rdf:about="">
        <dc:format>image/svg+xml</dc:format>
        <dc:type
           rdf:resource="http://purl.org/dc/dcmitype/StillImage" />
        <dc:title />
      </cc:Work>
    </rdf:RDF>
  </metadata>
  <g
     inkscape:label="Layer 1"
     inkscape:groupmode="layer"
     id="layer1"
     transform="translate(0.99999966,-253.36219)">
    <g
       id="g3053"
       transform="matrix(0.9,0,0,0.9,9.9361507,35.353733)">
      <path
         sodipodi:end="1.5707963"
         sodipodi:start="0"
         transform="translate(-21.919937,224.16858)"
         d="m 218.19296,136.09254 c 0,49.51291 -40.13814,89.65104 -89.65104,89.65104 l 0,-89.65104 z"
         sodipodi:ry="89.651039"
         sodipodi:rx="89.651039"
         sodipodi:cy="136.09254"
         sodipodi:cx="128.54192"
         id="path2995"
         style="fill:none;stroke:#000000;stroke-width:4.9000001;stroke-miterlimit:4;stroke-opacity:1;stroke-dasharray:none;stroke-dashoffset:0"
         sodipodi:type="arc" />
      <path
         sodipodi:end="1.5707963"
         sodipodi:start="0"
         transform="matrix(-1,0,0,1,220.64295,224.16858)"
         d="m 218.19296,136.09254 c 0,49.51291 -40.13814,89.65104 -89.65104,89.65104 l 0,-89.65104 z"
         sodipodi:ry="89.651039"
         sodipodi:rx="89.651039"
         sodipodi:cy="136.09254"
         sodipodi:cx="128.54192"
         id="path2995-1"
         style="fill:none;stroke:#000000;stroke-width:4.9000001;stroke-miterlimit:4;stroke-opacity:1;stroke-dasharray:none;stroke-dashoffset:0"
         sodipodi:type="arc" />
      <path
         sodipodi:end="1.5707963"
         sodipodi:start="0"
         transform="matrix(1,0,0,-1,-21.919937,482.90608)"
         d="m 218.19296,136.09254 c 0,49.51291 -40.13814,89.65104 -89.65104,89.65104 l 0,-89.65104 z"
         sodipodi:ry="89.651039"
         sodipodi:rx="89.651039"
         sodipodi:cy="136.09254"
         sodipodi:cx="128.54192"
         id="path2995-9"
         style="fill:none;stroke:#000000;stroke-width:4.9000001;stroke-miterlimit:4;stroke-opacity:1;stroke-dasharray:none;stroke-dashoffset:0"
         sodipodi:type="arc" />
      <path
         sodipodi:end="1.5707963"
         sodipodi:start="0"
         transform="matrix(-1,0,0,-1,220.64295,482.90608)"
         d="m 218.19296,136.09254 c 0,49.51291 -40.13814,89.65104 -89.65104,89.65104 l 0,-89.65104 z"
         sodipodi:ry="89.651039"
         sodipodi:rx="89.651039"
         sodipodi:cy="136.09254"
         sodipodi:cx="128.54192"
         id="path2995-1-4"
         style="fill:none;stroke:#000000;stroke-width:4.9000001;stroke-miterlimit:4;stroke-opacity:1;stroke-dasharray:none;stroke-dashoffset:0"
         sodipodi:type="arc" />
    </g>
    <g
       id="g3059"
       transform="matrix(0.9,0,0,0.9,29.936152,35.353733)">
      <path
         sodipodi:end="1.5707963"
         sodipodi:start="0"
         transform="translate(178.08007,224.16858)"
         d="m 218.19296,136.09254 c 0,49.51291 -40.13814,89.65104 -89.65104,89.65104 l 0,-89.65104 z"
         sodipodi:ry="89.651039"
         sodipodi:rx="89.651039"
         sodipodi:cy="136.09254"
         sodipodi:cx="128.54192"
         id="path2995-2"
         style="fill:none;stroke:#000000;stroke-width:4.9000001;stroke-miterlimit:4;stroke-opacity:1;stroke-dasharray:none;stroke-dashoffset:0"
         sodipodi:type="arc" />
      <path
         sodipodi:end="1.5707963"
         sodipodi:start="0"
         transform="matrix(-1,0,0,1,420.64296,224.16858)"
         d="m 218.19296,136.09254 c 0,49.51291 -40.13814,89.65104 -89.65104,89.65104 l 0,-89.65104 z"
         sodipodi:ry="89.651039"
         sodipodi:rx="89.651039"
         sodipodi:cy="136.09254"
         sodipodi:cx="128.54192"
         id="path2995-1-45"
         style="fill:none;stroke:#000000;stroke-width:4.9000001;stroke-miterlimit:4;stroke-opacity:1;stroke-dasharray:none;stroke-dashoffset:0"
         sodipodi:type="arc" />
      <path
         sodipodi:end="1.5707963"
         sodipodi:start="0"
         transform="matrix(1,0,0,-1,178.08007,482.90608)"
         d="m 218.19296,136.09254 c 0,49.51291 -40.13814,89.65104 -89.65104,89.65104 l 0,-89.65104 z"
         sodipodi:ry="89.651039"
         sodipodi:rx="89.651039"
         sodipodi:cy="136.09254"
         sodipodi:cx="128.54192"
         id="path2995-9-1"
         style="fill:#ff8000;fill-opacity:1;stroke:#000000;stroke-width:4.9000001;stroke-miterlimit:4;stroke-opacity:1;stroke-dasharray:none;stroke-dashoffset:0"
         sodipodi:type="arc" />
      <path
         sodipodi:end="1.5707963"
         sodipodi:start="0"
         transform="matrix(-1,0,0,-1,420.64296,482.90608)"
         d="m 218.19296,136.09254 c 0,49.51291 -40.13814,89.65104 -89.65104,89.65104 l 0,-89.65104 z"
         sodipodi:ry="89.651039"
         sodipodi:rx="89.651039"
         sodipodi:cy="136.09254"
         sodipodi:cx="128.54192"
         id="path2995-1-4-7"
         style="fill:none;stroke:#000000;stroke-width:4.9000001;stroke-miterlimit:4;stroke-opacity:1;stroke-dasharray:none;stroke-dashoffset:0"
         sodipodi:type="arc" />
    </g>
    <g
       id="g3065"
       transform="matrix(0.9,0,0,0.9,49.936152,35.353733)">
      <path
         sodipodi:end="1.5707963"
         sodipodi:start="0"
         transform="translate(378.08007,224.16858)"
         d="m 218.19296,136.09254 c 0,49.51291 -40.13814,89.65104 -89.65104,89.65104 l 0,-89.65104 z"
         sodipodi:ry="89.651039"
         sodipodi:rx="89.651039"
         sodipodi:cy="136.09254"
         sodipodi:cx="128.54192"
         id="path2995-5"
         style="fill:#ff8000;fill-opacity:1;stroke:#000000;stroke-width:4.9000001;stroke-miterlimit:4;stroke-opacity:1;stroke-dasharray:none;stroke-dashoffset:0"
         sodipodi:type="arc" />
      <path
         sodipodi:end="1.5707963"
         sodipodi:start="0"
         transform="matrix(-1,0,0,1,620.64296,224.16858)"
         d="m 218.19296,136.09254 c 0,49.51291 -40.13814,89.65104 -89.65104,89.65104 l 0,-89.65104 z"
         sodipodi:ry="89.651039"
         sodipodi:rx="89.651039"
         sodipodi:cy="136.09254"
         sodipodi:cx="128.54192"
         id="path2995-1-2"
         style="fill:none;stroke:#000000;stroke-width:4.9000001;stroke-miterlimit:4;stroke-opacity:1;stroke-dasharray:none;stroke-dashoffset:0"
         sodipodi:type="arc" />
      <path
         sodipodi:end="1.5707963"
         sodipodi:start="0"
         transform="matrix(1,0,0,-1,378.08007,482.90608)"
         d="m 218.19296,136.09254 c 0,49.51291 -40.13814,89.65104 -89.65104,89.65104 l 0,-89.65104 z"
         sodipodi:ry="89.651039"
         sodipodi:rx="89.651039"
         sodipodi:cy="136.09254"
         sodipodi:cx="128.54192"
         id="path2995-9-6"
         style="fill:none;stroke:#000000;stroke-width:4.9000001;stroke-miterlimit:4;stroke-opacity:1;stroke-dasharray:none;stroke-dashoffset:0"
         sodipodi:type="arc" />
      <path
         sodipodi:end="1.5707963"
         sodipodi:start="0"
         transform="matrix(-1,0,0,-1,620.64296,482.90608)"
         d="m 218.19296,136.09254 c 0,49.51291 -40.13814,89.65104 -89.65104,89.65104 l 0,-89.65104 z"
         sodipodi:ry="89.651039"
         sodipodi:rx="89.651039"
         sodipodi:cy="136.09254"
         sodipodi:cx="128.54192"
         id="path2995-1-4-1"
         style="fill:none;stroke:#000000;stroke-width:4.9000001;stroke-miterlimit:4;stroke-opacity:1;stroke-dasharray:none;stroke-dashoffset:0"
         sodipodi:type="arc" />
    </g>
    <g
       id="g3071"
       transform="matrix(0.9,0,0,0.9,69.936152,35.353733)">
      <path
         sodipodi:end="1.5707963"
         sodipodi:start="0"
         transform="translate(578.08008,224.16858)"
         d="m 218.19296,136.09254 c 0,49.51291 -40.13814,89.65104 -89.65104,89.65104 l 0,-89.65104 z"
         sodipodi:ry="89.651039"
         sodipodi:rx="89.651039"
         sodipodi:cy="136.09254"
         sodipodi:cx="128.54192"
         id="path2995-3"
         style="fill:none;stroke:#000000;stroke-width:4.9000001;stroke-miterlimit:4;stroke-opacity:1;stroke-dasharray:none;stroke-dashoffset:0"
         sodipodi:type="arc" />
      <path
         sodipodi:end="1.5707963"
         sodipodi:start="0"
         transform="matrix(-1,0,0,1,820.64297,224.16858)"
         d="m 218.19296,136.09254 c 0,49.51291 -40.13814,89.65104 -89.65104,89.65104 l 0,-89.65104 z"
         sodipodi:ry="89.651039"
         sodipodi:rx="89.651039"
         sodipodi:cy="136.09254"
         sodipodi:cx="128.54192"
         id="path2995-1-22"
         style="fill:#ff8000;fill-opacity:1;stroke:#000000;stroke-width:4.9000001;stroke-miterlimit:4;stroke-opacity:1;stroke-dasharray:none;stroke-dashoffset:0"
         sodipodi:type="arc" />
      <path
         sodipodi:end="1.5707963"
         sodipodi:start="0"
         transform="matrix(1,0,0,-1,578.08008,482.90608)"
         d="m 218.19296,136.09254 c 0,49.51291 -40.13814,89.65104 -89.65104,89.65104 l 0,-89.65104 z"
         sodipodi:ry="89.651039"
         sodipodi:rx="89.651039"
         sodipodi:cy="136.09254"
         sodipodi:cx="128.54192"
         id="path2995-9-68"
         style="fill:none;stroke:#000000;stroke-width:4.9000001;stroke-miterlimit:4;stroke-opacity:1;stroke-dasharray:none;stroke-dashoffset:0"
         sodipodi:type="arc" />
      <path
         sodipodi:end="1.5707963"
         sodipodi:start="0"
         transform="matrix(-1,0,0,-1,820.64297,482.90608)"
         d="m 218.19296,136.09254 c 0,49.51291 -40.13814,89.65104 -89.65104,89.65104 l 0,-89.65104 z"
         sodipodi:ry="89.651039"
         sodipodi:rx="89.651039"
         sodipodi:cy="136.09254"
         sodipodi:cx="128.54192"
         id="path2995-1-4-5"
         style="fill:none;stroke:#000000;stroke-width:4.9000001;stroke-miterlimit:4;stroke-opacity:1;stroke-dasharray:none;stroke-dashoffset:0"
         sodipodi:type="arc" />
    </g>
    <g
       id="g3095"
       transform="matrix(0.9,0,0,0.9,9.9361507,55.353734)">
      <path
         sodipodi:end="1.5707963"
         sodipodi:start="0"
         transform="translate(-21.919937,424.1686)"
         d="m 218.19296,136.09254 c 0,49.51291 -40.13814,89.65104 -89.65104,89.65104 l 0,-89.65104 z"
         sodipodi:ry="89.651039"
         sodipodi:rx="89.651039"
         sodipodi:cy="136.09254"
         sodipodi:cx="128.54192"
         id="path2995-18"
         style="fill:none;stroke:#000000;stroke-width:4.9000001;stroke-miterlimit:4;stroke-opacity:1;stroke-dasharray:none;stroke-dashoffset:0"
         sodipodi:type="arc" />
      <path
         sodipodi:end="1.5707963"
         sodipodi:start="0"
         transform="matrix(-1,0,0,1,220.64295,424.1686)"
         d="m 218.19296,136.09254 c 0,49.51291 -40.13814,89.65104 -89.65104,89.65104 l 0,-89.65104 z"
         sodipodi:ry="89.651039"
         sodipodi:rx="89.651039"
         sodipodi:cy="136.09254"
         sodipodi:cx="128.54192"
         id="path2995-1-9"
         style="fill:none;stroke:#000000;stroke-width:4.9000001;stroke-miterlimit:4;stroke-opacity:1;stroke-dasharray:none;stroke-dashoffset:0"
         sodipodi:type="arc" />
      <path
         sodipodi:end="1.5707963"
         sodipodi:start="0"
         transform="matrix(1,0,0,-1,-21.919937,682.90608)"
         d="m 218.19296,136.09254 c 0,49.51291 -40.13814,89.65104 -89.65104,89.65104 l 0,-89.65104 z"
         sodipodi:ry="89.651039"
         sodipodi:rx="89.651039"
         sodipodi:cy="136.09254"
         sodipodi:cx="128.54192"
         id="path2995-9-7"
         style="fill:none;stroke:#000000;stroke-width:4.9000001;stroke-miterlimit:4;stroke-opacity:1;stroke-dasharray:none;stroke-dashoffset:0"
         sodipodi:type="arc" />
      <path
         sodipodi:end="1.5707963"
         sodipodi:start="0"
         transform="matrix(-1,0,0,-1,220.64295,682.90608)"
         d="m 218.19296,136.09254 c 0,49.51291 -40.13814,89.65104 -89.65104,89.65104 l 0,-89.65104 z"
         sodipodi:ry="89.651039"
         sodipodi:rx="89.651039"
         sodipodi:cy="136.09254"
         sodipodi:cx="128.54192"
         id="path2995-1-4-9"
         style="fill:#ff8000;fill-opacity:1;stroke:#000000;stroke-width:4.9000001;stroke-miterlimit:4;stroke-opacity:1;stroke-dasharray:none;stroke-dashoffset:0"
         sodipodi:type="arc" />
    </g>
    <g
       id="g3089"
       transform="matrix(0.9,0,0,0.9,29.936152,55.353735)">
      <path
         sodipodi:end="1.5707963"
         sodipodi:start="0"
         transform="translate(178.08007,424.16862)"
         d="m 218.19296,136.09254 c 0,49.51291 -40.13814,89.65104 -89.65104,89.65104 l 0,-89.65104 z"
         sodipodi:ry="89.651039"
         sodipodi:rx="89.651039"
         sodipodi:cy="136.09254"
         sodipodi:cx="128.54192"
         id="path2995-31"
         style="fill:none;stroke:#000000;stroke-width:4.9000001;stroke-miterlimit:4;stroke-opacity:1;stroke-dasharray:none;stroke-dashoffset:0"
         sodipodi:type="arc" />
      <path
         sodipodi:end="1.5707963"
         sodipodi:start="0"
         transform="matrix(-1,0,0,1,420.64296,424.16862)"
         d="m 218.19296,136.09254 c 0,49.51291 -40.13814,89.65104 -89.65104,89.65104 l 0,-89.65104 z"
         sodipodi:ry="89.651039"
         sodipodi:rx="89.651039"
         sodipodi:cy="136.09254"
         sodipodi:cx="128.54192"
         id="path2995-1-23"
         style="fill:none;stroke:#000000;stroke-width:4.9000001;stroke-miterlimit:4;stroke-opacity:1;stroke-dasharray:none;stroke-dashoffset:0"
         sodipodi:type="arc" />
      <path
         sodipodi:end="1.5707963"
         sodipodi:start="0"
         transform="matrix(1,0,0,-1,178.08007,682.90608)"
         d="m 218.19296,136.09254 c 0,49.51291 -40.13814,89.65104 -89.65104,89.65104 l 0,-89.65104 z"
         sodipodi:ry="89.651039"
         sodipodi:rx="89.651039"
         sodipodi:cy="136.09254"
         sodipodi:cx="128.54192"
         id="path2995-9-4"
         style="fill:#ff8000;fill-opacity:1;stroke:#000000;stroke-width:4.9000001;stroke-miterlimit:4;stroke-opacity:1;stroke-dasharray:none;stroke-dashoffset:0"
         sodipodi:type="arc" />
      <path
         sodipodi:end="1.5707963"
         sodipodi:start="0"
         transform="matrix(-1,0,0,-1,420.64296,682.90608)"
         d="m 218.19296,136.09254 c 0,49.51291 -40.13814,89.65104 -89.65104,89.65104 l 0,-89.65104 z"
         sodipodi:ry="89.651039"
         sodipodi:rx="89.651039"
         sodipodi:cy="136.09254"
         sodipodi:cx="128.54192"
         id="path2995-1-4-11"
         style="fill:#ff8000;fill-opacity:1;stroke:#000000;stroke-width:4.9000001;stroke-miterlimit:4;stroke-opacity:1;stroke-dasharray:none;stroke-dashoffset:0"
         sodipodi:type="arc" />
    </g>
    <g
       id="g3083"
       transform="matrix(0.9,0,0,0.9,49.936152,55.353733)">
      <path
         sodipodi:end="1.5707963"
         sodipodi:start="0"
         transform="translate(378.08007,424.16858)"
         d="m 218.19296,136.09254 c 0,49.51291 -40.13814,89.65104 -89.65104,89.65104 l 0,-89.65104 z"
         sodipodi:ry="89.651039"
         sodipodi:rx="89.651039"
         sodipodi:cy="136.09254"
         sodipodi:cx="128.54192"
         id="path2995-4"
         style="fill:#ff8000;fill-opacity:1;stroke:#000000;stroke-width:4.9000001;stroke-miterlimit:4;stroke-opacity:1;stroke-dasharray:none;stroke-dashoffset:0"
         sodipodi:type="arc" />
      <path
         sodipodi:end="1.5707963"
         sodipodi:start="0"
         transform="matrix(-1,0,0,1,620.64296,424.16858)"
         d="m 218.19296,136.09254 c 0,49.51291 -40.13814,89.65104 -89.65104,89.65104 l 0,-89.65104 z"
         sodipodi:ry="89.651039"
         sodipodi:rx="89.651039"
         sodipodi:cy="136.09254"
         sodipodi:cx="128.54192"
         id="path2995-1-27"
         style="fill:none;stroke:#000000;stroke-width:4.9000001;stroke-miterlimit:4;stroke-opacity:1;stroke-dasharray:none;stroke-dashoffset:0"
         sodipodi:type="arc" />
      <path
         sodipodi:end="1.5707963"
         sodipodi:start="0"
         transform="matrix(1,0,0,-1,378.08007,682.90608)"
         d="m 218.19296,136.09254 c 0,49.51291 -40.13814,89.65104 -89.65104,89.65104 l 0,-89.65104 z"
         sodipodi:ry="89.651039"
         sodipodi:rx="89.651039"
         sodipodi:cy="136.09254"
         sodipodi:cx="128.54192"
         id="path2995-9-3"
         style="fill:none;stroke:#000000;stroke-width:4.9000001;stroke-miterlimit:4;stroke-opacity:1;stroke-dasharray:none;stroke-dashoffset:0"
         sodipodi:type="arc" />
      <path
         sodipodi:end="1.5707963"
         sodipodi:start="0"
         transform="matrix(-1,0,0,-1,620.64296,682.90608)"
         d="m 218.19296,136.09254 c 0,49.51291 -40.13814,89.65104 -89.65104,89.65104 l 0,-89.65104 z"
         sodipodi:ry="89.651039"
         sodipodi:rx="89.651039"
         sodipodi:cy="136.09254"
         sodipodi:cx="128.54192"
         id="path2995-1-4-19"
         style="fill:#ff8000;fill-opacity:1;stroke:#000000;stroke-width:4.9000001;stroke-miterlimit:4;stroke-opacity:1;stroke-dasharray:none;stroke-dashoffset:0"
         sodipodi:type="arc" />
    </g>
    <g
       id="g3077"
       transform="matrix(0.9,0,0,0.9,69.936151,55.353734)">
      <path
         sodipodi:end="1.5707963"
         sodipodi:start="0"
         transform="translate(578.08007,424.1686)"
         d="m 218.19296,136.09254 c 0,49.51291 -40.13814,89.65104 -89.65104,89.65104 l 0,-89.65104 z"
         sodipodi:ry="89.651039"
         sodipodi:rx="89.651039"
         sodipodi:cy="136.09254"
         sodipodi:cx="128.54192"
         id="path2995-0"
         style="fill:none;stroke:#000000;stroke-width:4.9000001;stroke-miterlimit:4;stroke-opacity:1;stroke-dasharray:none;stroke-dashoffset:0"
         sodipodi:type="arc" />
      <path
         sodipodi:end="1.5707963"
         sodipodi:start="0"
         transform="matrix(-1,0,0,1,820.64296,424.1686)"
         d="m 218.19296,136.09254 c 0,49.51291 -40.13814,89.65104 -89.65104,89.65104 l 0,-89.65104 z"
         sodipodi:ry="89.651039"
         sodipodi:rx="89.651039"
         sodipodi:cy="136.09254"
         sodipodi:cx="128.54192"
         id="path2995-1-28"
         style="fill:#ff8000;fill-opacity:1;stroke:#000000;stroke-width:4.9000001;stroke-miterlimit:4;stroke-opacity:1;stroke-dasharray:none;stroke-dashoffset:0"
         sodipodi:type="arc" />
      <path
         sodipodi:end="1.5707963"
         sodipodi:start="0"
         transform="matrix(1,0,0,-1,578.08007,682.90608)"
         d="m 218.19296,136.09254 c 0,49.51291 -40.13814,89.65104 -89.65104,89.65104 l 0,-89.65104 z"
         sodipodi:ry="89.651039"
         sodipodi:rx="89.651039"
         sodipodi:cy="136.09254"
         sodipodi:cx="128.54192"
         id="path2995-9-0"
         style="fill:none;stroke:#000000;stroke-width:4.9000001;stroke-miterlimit:4;stroke-opacity:1;stroke-dasharray:none;stroke-dashoffset:0"
         sodipodi:type="arc" />
      <path
         sodipodi:end="1.5707963"
         sodipodi:start="0"
         transform="matrix(-1,0,0,-1,820.64296,682.90608)"
         d="m 218.19296,136.09254 c 0,49.51291 -40.13814,89.65104 -89.65104,89.65104 l 0,-89.65104 z"
         sodipodi:ry="89.651039"
         sodipodi:rx="89.651039"
         sodipodi:cy="136.09254"
         sodipodi:cx="128.54192"
         id="path2995-1-4-2"
         style="fill:#ff8000;fill-opacity:1;stroke:#000000;stroke-width:4.9000001;stroke-miterlimit:4;stroke-opacity:1;stroke-dasharray:none;stroke-dashoffset:0"
         sodipodi:type="arc" />
    </g>
    <g
       id="g3101"
       transform="matrix(0.9,0,0,0.9,9.9361507,75.353734)">
      <path
         sodipodi:end="1.5707963"
         sodipodi:start="0"
         transform="translate(-21.919937,624.16861)"
         d="m 218.19296,136.09254 c 0,49.51291 -40.13814,89.65104 -89.65104,89.65104 l 0,-89.65104 z"
         sodipodi:ry="89.651039"
         sodipodi:rx="89.651039"
         sodipodi:cy="136.09254"
         sodipodi:cx="128.54192"
         id="path2995-09"
         style="fill:#ff8000;fill-opacity:1;stroke:#000000;stroke-width:4.9000001;stroke-miterlimit:4;stroke-opacity:1;stroke-dasharray:none;stroke-dashoffset:0"
         sodipodi:type="arc" />
      <path
         sodipodi:end="1.5707963"
         sodipodi:start="0"
         transform="matrix(-1,0,0,1,220.64295,624.16861)"
         d="m 218.19296,136.09254 c 0,49.51291 -40.13814,89.65104 -89.65104,89.65104 l 0,-89.65104 z"
         sodipodi:ry="89.651039"
         sodipodi:rx="89.651039"
         sodipodi:cy="136.09254"
         sodipodi:cx="128.54192"
         id="path2995-1-0"
         style="fill:none;stroke:#000000;stroke-width:4.9000001;stroke-miterlimit:4;stroke-opacity:1;stroke-dasharray:none;stroke-dashoffset:0"
         sodipodi:type="arc" />
      <path
         sodipodi:end="1.5707963"
         sodipodi:start="0"
         transform="matrix(1,0,0,-1,-21.919937,882.90608)"
         d="m 218.19296,136.09254 c 0,49.51291 -40.13814,89.65104 -89.65104,89.65104 l 0,-89.65104 z"
         sodipodi:ry="89.651039"
         sodipodi:rx="89.651039"
         sodipodi:cy="136.09254"
         sodipodi:cx="128.54192"
         id="path2995-9-61"
         style="fill:#ff8000;fill-opacity:1;stroke:#000000;stroke-width:4.9000001;stroke-miterlimit:4;stroke-opacity:1;stroke-dasharray:none;stroke-dashoffset:0"
         sodipodi:type="arc" />
      <path
         sodipodi:end="1.5707963"
         sodipodi:start="0"
         transform="matrix(-1,0,0,-1,220.64295,882.90608)"
         d="m 218.19296,136.09254 c 0,49.51291 -40.13814,89.65104 -89.65104,89.65104 l 0,-89.65104 z"
         sodipodi:ry="89.651039"
         sodipodi:rx="89.651039"
         sodipodi:cy="136.09254"
         sodipodi:cx="128.54192"
         id="path2995-1-4-3"
         style="fill:none;stroke:#000000;stroke-width:4.9000001;stroke-miterlimit:4;stroke-opacity:1;stroke-dasharray:none;stroke-dashoffset:0"
         sodipodi:type="arc" />
    </g>
    <g
       id="g3119"
       transform="matrix(0.9,0,0,0.9,29.936152,75.353733)">
      <path
         sodipodi:end="1.5707963"
         sodipodi:start="0"
         transform="translate(178.08007,624.16859)"
         d="m 218.19296,136.09254 c 0,49.51291 -40.13814,89.65104 -89.65104,89.65104 l 0,-89.65104 z"
         sodipodi:ry="89.651039"
         sodipodi:rx="89.651039"
         sodipodi:cy="136.09254"
         sodipodi:cx="128.54192"
         id="path2995-44"
         style="fill:none;stroke:#000000;stroke-width:4.9000001;stroke-miterlimit:4;stroke-opacity:1;stroke-dasharray:none;stroke-dashoffset:0"
         sodipodi:type="arc" />
      <path
         sodipodi:end="1.5707963"
         sodipodi:start="0"
         transform="matrix(-1,0,0,1,420.64296,624.16859)"
         d="m 218.19296,136.09254 c 0,49.51291 -40.13814,89.65104 -89.65104,89.65104 l 0,-89.65104 z"
         sodipodi:ry="89.651039"
         sodipodi:rx="89.651039"
         sodipodi:cy="136.09254"
         sodipodi:cx="128.54192"
         id="path2995-1-6"
         style="fill:#ff8000;fill-opacity:1;stroke:#000000;stroke-width:4.9000001;stroke-miterlimit:4;stroke-opacity:1;stroke-dasharray:none;stroke-dashoffset:0"
         sodipodi:type="arc" />
      <path
         sodipodi:end="1.5707963"
         sodipodi:start="0"
         transform="matrix(1,0,0,-1,178.08007,882.90608)"
         d="m 218.19296,136.09254 c 0,49.51291 -40.13814,89.65104 -89.65104,89.65104 l 0,-89.65104 z"
         sodipodi:ry="89.651039"
         sodipodi:rx="89.651039"
         sodipodi:cy="136.09254"
         sodipodi:cx="128.54192"
         id="path2995-9-618"
         style="fill:#ff8000;fill-opacity:1;stroke:#000000;stroke-width:4.9000001;stroke-miterlimit:4;stroke-opacity:1;stroke-dasharray:none;stroke-dashoffset:0"
         sodipodi:type="arc" />
      <path
         sodipodi:end="1.5707963"
         sodipodi:start="0"
         transform="matrix(-1,0,0,-1,420.64296,882.90608)"
         d="m 218.19296,136.09254 c 0,49.51291 -40.13814,89.65104 -89.65104,89.65104 l 0,-89.65104 z"
         sodipodi:ry="89.651039"
         sodipodi:rx="89.651039"
         sodipodi:cy="136.09254"
         sodipodi:cx="128.54192"
         id="path2995-1-4-4"
         style="fill:none;stroke:#000000;stroke-width:4.9000001;stroke-miterlimit:4;stroke-opacity:1;stroke-dasharray:none;stroke-dashoffset:0"
         sodipodi:type="arc" />
    </g>
    <g
       id="g3113"
       transform="matrix(0.9,0,0,0.9,49.936152,75.353734)">
      <path
         sodipodi:end="1.5707963"
         sodipodi:start="0"
         transform="translate(378.08007,624.1686)"
         d="m 218.19296,136.09254 c 0,49.51291 -40.13814,89.65104 -89.65104,89.65104 l 0,-89.65104 z"
         sodipodi:ry="89.651039"
         sodipodi:rx="89.651039"
         sodipodi:cy="136.09254"
         sodipodi:cx="128.54192"
         id="path2995-7"
         style="fill:#ff8000;fill-opacity:1;stroke:#000000;stroke-width:4.9000001;stroke-miterlimit:4;stroke-opacity:1;stroke-dasharray:none;stroke-dashoffset:0"
         sodipodi:type="arc" />
      <path
         sodipodi:end="1.5707963"
         sodipodi:start="0"
         transform="matrix(-1,0,0,1,620.64296,624.1686)"
         d="m 218.19296,136.09254 c 0,49.51291 -40.13814,89.65104 -89.65104,89.65104 l 0,-89.65104 z"
         sodipodi:ry="89.651039"
         sodipodi:rx="89.651039"
         sodipodi:cy="136.09254"
         sodipodi:cx="128.54192"
         id="path2995-1-8"
         style="fill:#ff8000;fill-opacity:1;stroke:#000000;stroke-width:4.9000001;stroke-miterlimit:4;stroke-opacity:1;stroke-dasharray:none;stroke-dashoffset:0"
         sodipodi:type="arc" />
      <path
         sodipodi:end="1.5707963"
         sodipodi:start="0"
         transform="matrix(1,0,0,-1,378.08007,882.90608)"
         d="m 218.19296,136.09254 c 0,49.51291 -40.13814,89.65104 -89.65104,89.65104 l 0,-89.65104 z"
         sodipodi:ry="89.651039"
         sodipodi:rx="89.651039"
         sodipodi:cy="136.09254"
         sodipodi:cx="128.54192"
         id="path2995-9-2"
         style="fill:none;stroke:#000000;stroke-width:4.9000001;stroke-miterlimit:4;stroke-opacity:1;stroke-dasharray:none;stroke-dashoffset:0"
         sodipodi:type="arc" />
      <path
         sodipodi:end="1.5707963"
         sodipodi:start="0"
         transform="matrix(-1,0,0,-1,620.64296,882.90608)"
         d="m 218.19296,136.09254 c 0,49.51291 -40.13814,89.65104 -89.65104,89.65104 l 0,-89.65104 z"
         sodipodi:ry="89.651039"
         sodipodi:rx="89.651039"
         sodipodi:cy="136.09254"
         sodipodi:cx="128.54192"
         id="path2995-1-4-91"
         style="fill:none;stroke:#000000;stroke-width:4.9000001;stroke-miterlimit:4;stroke-opacity:1;stroke-dasharray:none;stroke-dashoffset:0"
         sodipodi:type="arc" />
    </g>
    <g
       id="g3107"
       transform="matrix(0.9,0,0,0.9,69.936151,75.353734)">
      <path
         sodipodi:end="1.5707963"
         sodipodi:start="0"
         transform="translate(578.08007,624.1686)"
         d="m 218.19296,136.09254 c 0,49.51291 -40.13814,89.65104 -89.65104,89.65104 l 0,-89.65104 z"
         sodipodi:ry="89.651039"
         sodipodi:rx="89.651039"
         sodipodi:cy="136.09254"
         sodipodi:cx="128.54192"
         id="path2995-8"
         style="fill:none;stroke:#000000;stroke-width:4.9000001;stroke-miterlimit:4;stroke-opacity:1;stroke-dasharray:none;stroke-dashoffset:0"
         sodipodi:type="arc" />
      <path
         sodipodi:end="1.5707963"
         sodipodi:start="0"
         transform="matrix(-1,0,0,1,820.64296,624.1686)"
         d="m 218.19296,136.09254 c 0,49.51291 -40.13814,89.65104 -89.65104,89.65104 l 0,-89.65104 z"
         sodipodi:ry="89.651039"
         sodipodi:rx="89.651039"
         sodipodi:cy="136.09254"
         sodipodi:cx="128.54192"
         id="path2995-1-40"
         style="fill:#ff8000;fill-opacity:1;stroke:#000000;stroke-width:4.9000001;stroke-miterlimit:4;stroke-opacity:1;stroke-dasharray:none;stroke-dashoffset:0"
         sodipodi:type="arc" />
      <path
         sodipodi:end="1.5707963"
         sodipodi:start="0"
         transform="matrix(1,0,0,-1,578.08007,882.90608)"
         d="m 218.19296,136.09254 c 0,49.51291 -40.13814,89.65104 -89.65104,89.65104 l 0,-89.65104 z"
         sodipodi:ry="89.651039"
         sodipodi:rx="89.651039"
         sodipodi:cy="136.09254"
         sodipodi:cx="128.54192"
         id="path2995-9-36"
         style="fill:#ff8000;fill-opacity:1;stroke:#000000;stroke-width:4.9000001;stroke-miterlimit:4;stroke-opacity:1;stroke-dasharray:none;stroke-dashoffset:0"
         sodipodi:type="arc" />
      <path
         sodipodi:end="1.5707963"
         sodipodi:start="0"
         transform="matrix(-1,0,0,-1,820.64296,882.90608)"
         d="m 218.19296,136.09254 c 0,49.51291 -40.13814,89.65104 -89.65104,89.65104 l 0,-89.65104 z"
         sodipodi:ry="89.651039"
         sodipodi:rx="89.651039"
         sodipodi:cy="136.09254"
         sodipodi:cx="128.54192"
         id="path2995-1-4-15"
         style="fill:#ff8000;fill-opacity:1;stroke:#000000;stroke-width:4.9000001;stroke-miterlimit:4;stroke-opacity:1;stroke-dasharray:none;stroke-dashoffset:0"
         sodipodi:type="arc" />
    </g>
    <g
       id="g3125"
       transform="matrix(0.9,0,0,0.9,9.9361507,95.353735)">
      <path
         sodipodi:end="1.5707963"
         sodipodi:start="0"
         transform="translate(-21.919937,824.1686)"
         d="m 218.19296,136.09254 c 0,49.51291 -40.13814,89.65104 -89.65104,89.65104 l 0,-89.65104 z"
         sodipodi:ry="89.651039"
         sodipodi:rx="89.651039"
         sodipodi:cy="136.09254"
         sodipodi:cx="128.54192"
         id="path2995-73"
         style="fill:#ff8000;fill-opacity:1;stroke:#000000;stroke-width:4.9000001;stroke-miterlimit:4;stroke-opacity:1;stroke-dasharray:none;stroke-dashoffset:0"
         sodipodi:type="arc" />
      <path
         sodipodi:end="1.5707963"
         sodipodi:start="0"
         transform="matrix(-1,0,0,1,220.64295,824.1686)"
         d="m 218.19296,136.09254 c 0,49.51291 -40.13814,89.65104 -89.65104,89.65104 l 0,-89.65104 z"
         sodipodi:ry="89.651039"
         sodipodi:rx="89.651039"
         sodipodi:cy="136.09254"
         sodipodi:cx="128.54192"
         id="path2995-1-7"
         style="fill:none;stroke:#000000;stroke-width:4.9000001;stroke-miterlimit:4;stroke-opacity:1;stroke-dasharray:none;stroke-dashoffset:0"
         sodipodi:type="arc" />
      <path
         sodipodi:end="1.5707963"
         sodipodi:start="0"
         transform="matrix(1,0,0,-1,-21.919937,1082.9061)"
         d="m 218.19296,136.09254 c 0,49.51291 -40.13814,89.65104 -89.65104,89.65104 l 0,-89.65104 z"
         sodipodi:ry="89.651039"
         sodipodi:rx="89.651039"
         sodipodi:cy="136.09254"
         sodipodi:cx="128.54192"
         id="path2995-9-01"
         style="fill:#ff8000;fill-opacity:1;stroke:#000000;stroke-width:4.9000001;stroke-miterlimit:4;stroke-opacity:1;stroke-dasharray:none;stroke-dashoffset:0"
         sodipodi:type="arc" />
      <path
         sodipodi:end="1.5707963"
         sodipodi:start="0"
         transform="matrix(-1,0,0,-1,220.64295,1082.9061)"
         d="m 218.19296,136.09254 c 0,49.51291 -40.13814,89.65104 -89.65104,89.65104 l 0,-89.65104 z"
         sodipodi:ry="89.651039"
         sodipodi:rx="89.651039"
         sodipodi:cy="136.09254"
         sodipodi:cx="128.54192"
         id="path2995-1-4-6"
         style="fill:#ff8000;fill-opacity:1;stroke:#000000;stroke-width:4.9000001;stroke-miterlimit:4;stroke-opacity:1;stroke-dasharray:none;stroke-dashoffset:0"
         sodipodi:type="arc" />
    </g>
    <g
       id="g3131"
       transform="matrix(0.9,0,0,0.9,29.936152,95.353735)">
      <path
         sodipodi:end="1.5707963"
         sodipodi:start="0"
         transform="translate(178.08007,824.1686)"
         d="m 218.19296,136.09254 c 0,49.51291 -40.13814,89.65104 -89.65104,89.65104 l 0,-89.65104 z"
         sodipodi:ry="89.651039"
         sodipodi:rx="89.651039"
         sodipodi:cy="136.09254"
         sodipodi:cx="128.54192"
         id="path2995-12"
         style="fill:#ff8000;fill-opacity:1;stroke:#000000;stroke-width:4.9000001;stroke-miterlimit:4;stroke-opacity:1;stroke-dasharray:none;stroke-dashoffset:0"
         sodipodi:type="arc" />
      <path
         sodipodi:end="1.5707963"
         sodipodi:start="0"
         transform="matrix(-1,0,0,1,420.64296,824.1686)"
         d="m 218.19296,136.09254 c 0,49.51291 -40.13814,89.65104 -89.65104,89.65104 l 0,-89.65104 z"
         sodipodi:ry="89.651039"
         sodipodi:rx="89.651039"
         sodipodi:cy="136.09254"
         sodipodi:cx="128.54192"
         id="path2995-1-00"
         style="fill:#ff8000;fill-opacity:1;stroke:#000000;stroke-width:4.9000001;stroke-miterlimit:4;stroke-opacity:1;stroke-dasharray:none;stroke-dashoffset:0"
         sodipodi:type="arc" />
      <path
         sodipodi:end="1.5707963"
         sodipodi:start="0"
         transform="matrix(1,0,0,-1,178.08007,1082.9061)"
         d="m 218.19296,136.09254 c 0,49.51291 -40.13814,89.65104 -89.65104,89.65104 l 0,-89.65104 z"
         sodipodi:ry="89.651039"
         sodipodi:rx="89.651039"
         sodipodi:cy="136.09254"
         sodipodi:cx="128.54192"
         id="path2995-9-60"
         style="fill:#ff8000;fill-opacity:1;stroke:#000000;stroke-width:4.9000001;stroke-miterlimit:4;stroke-opacity:1;stroke-dasharray:none;stroke-dashoffset:0"
         sodipodi:type="arc" />
      <path
         sodipodi:end="1.5707963"
         sodipodi:start="0"
         transform="matrix(-1,0,0,-1,420.64296,1082.9061)"
         d="m 218.19296,136.09254 c 0,49.51291 -40.13814,89.65104 -89.65104,89.65104 l 0,-89.65104 z"
         sodipodi:ry="89.651039"
         sodipodi:rx="89.651039"
         sodipodi:cy="136.09254"
         sodipodi:cx="128.54192"
         id="path2995-1-4-71"
         style="fill:none;stroke:#000000;stroke-width:4.9000001;stroke-miterlimit:4;stroke-opacity:1;stroke-dasharray:none;stroke-dashoffset:0"
         sodipodi:type="arc" />
    </g>
    <g
       id="g3137"
       transform="matrix(0.9,0,0,0.9,49.936152,95.353735)">
      <path
         sodipodi:end="1.5707963"
         sodipodi:start="0"
         transform="translate(378.08007,824.1686)"
         d="m 218.19296,136.09254 c 0,49.51291 -40.13814,89.65104 -89.65104,89.65104 l 0,-89.65104 z"
         sodipodi:ry="89.651039"
         sodipodi:rx="89.651039"
         sodipodi:cy="136.09254"
         sodipodi:cx="128.54192"
         id="path2995-733"
         style="fill:#ff8000;fill-opacity:1;stroke:#000000;stroke-width:4.9000001;stroke-miterlimit:4;stroke-opacity:1;stroke-dasharray:none;stroke-dashoffset:0"
         sodipodi:type="arc" />
      <path
         sodipodi:end="1.5707963"
         sodipodi:start="0"
         transform="matrix(-1,0,0,1,620.64296,824.1686)"
         d="m 218.19296,136.09254 c 0,49.51291 -40.13814,89.65104 -89.65104,89.65104 l 0,-89.65104 z"
         sodipodi:ry="89.651039"
         sodipodi:rx="89.651039"
         sodipodi:cy="136.09254"
         sodipodi:cx="128.54192"
         id="path2995-1-5"
         style="fill:#ff8000;fill-opacity:1;stroke:#000000;stroke-width:4.9000001;stroke-miterlimit:4;stroke-opacity:1;stroke-dasharray:none;stroke-dashoffset:0"
         sodipodi:type="arc" />
      <path
         sodipodi:end="1.5707963"
         sodipodi:start="0"
         transform="matrix(1,0,0,-1,378.08007,1082.9061)"
         d="m 218.19296,136.09254 c 0,49.51291 -40.13814,89.65104 -89.65104,89.65104 l 0,-89.65104 z"
         sodipodi:ry="89.651039"
         sodipodi:rx="89.651039"
         sodipodi:cy="136.09254"
         sodipodi:cx="128.54192"
         id="path2995-9-9"
         style="fill:none;stroke:#000000;stroke-width:4.9000001;stroke-miterlimit:4;stroke-opacity:1;stroke-dasharray:none;stroke-dashoffset:0"
         sodipodi:type="arc" />
      <path
         sodipodi:end="1.5707963"
         sodipodi:start="0"
         transform="matrix(-1,0,0,-1,620.64296,1082.9061)"
         d="m 218.19296,136.09254 c 0,49.51291 -40.13814,89.65104 -89.65104,89.65104 l 0,-89.65104 z"
         sodipodi:ry="89.651039"
         sodipodi:rx="89.651039"
         sodipodi:cy="136.09254"
         sodipodi:cx="128.54192"
         id="path2995-1-4-8"
         style="fill:#ff8000;fill-opacity:1;stroke:#000000;stroke-width:4.9000001;stroke-miterlimit:4;stroke-opacity:1;stroke-dasharray:none;stroke-dashoffset:0"
         sodipodi:type="arc" />
    </g>
    <g
       id="g3143"
       transform="matrix(0.9,0,0,0.9,69.936151,95.353735)">
      <path
         sodipodi:end="1.5707963"
         sodipodi:start="0"
         transform="translate(578.08007,824.1686)"
         d="m 218.19296,136.09254 c 0,49.51291 -40.13814,89.65104 -89.65104,89.65104 l 0,-89.65104 z"
         sodipodi:ry="89.651039"
         sodipodi:rx="89.651039"
         sodipodi:cy="136.09254"
         sodipodi:cx="128.54192"
         id="path2995-6"
         style="fill:#ff8000;fill-opacity:1;stroke:#000000;stroke-width:4.9000001;stroke-miterlimit:4;stroke-opacity:1;stroke-dasharray:none;stroke-dashoffset:0"
         sodipodi:type="arc" />
      <path
         sodipodi:end="1.5707963"
         sodipodi:start="0"
         transform="matrix(-1,0,0,1,820.64296,824.1686)"
         d="m 218.19296,136.09254 c 0,49.51291 -40.13814,89.65104 -89.65104,89.65104 l 0,-89.65104 z"
         sodipodi:ry="89.651039"
         sodipodi:rx="89.651039"
         sodipodi:cy="136.09254"
         sodipodi:cx="128.54192"
         id="path2995-1-03"
         style="fill:#ff8000;fill-opacity:1;stroke:#000000;stroke-width:4.9000001;stroke-miterlimit:4;stroke-opacity:1;stroke-dasharray:none;stroke-dashoffset:0"
         sodipodi:type="arc" />
      <path
         sodipodi:end="1.5707963"
         sodipodi:start="0"
         transform="matrix(1,0,0,-1,578.08007,1082.9061)"
         d="m 218.19296,136.09254 c 0,49.51291 -40.13814,89.65104 -89.65104,89.65104 l 0,-89.65104 z"
         sodipodi:ry="89.651039"
         sodipodi:rx="89.651039"
         sodipodi:cy="136.09254"
         sodipodi:cx="128.54192"
         id="path2995-9-12"
         style="fill:#ff8000;fill-opacity:1;stroke:#000000;stroke-width:4.9000001;stroke-miterlimit:4;stroke-opacity:1;stroke-dasharray:none;stroke-dashoffset:0"
         sodipodi:type="arc" />
      <path
         sodipodi:end="1.5707963"
         sodipodi:start="0"
         transform="matrix(-1,0,0,-1,820.64296,1082.9061)"
         d="m 218.19296,136.09254 c 0,49.51291 -40.13814,89.65104 -89.65104,89.65104 l 0,-89.65104 z"
         sodipodi:ry="89.651039"
         sodipodi:rx="89.651039"
         sodipodi:cy="136.09254"
         sodipodi:cx="128.54192"
         id="path2995-1-4-50"
         style="fill:#ff8000;fill-opacity:1;stroke:#000000;stroke-width:4.9000001;stroke-miterlimit:4;stroke-opacity:1;stroke-dasharray:none;stroke-dashoffset:0"
         sodipodi:type="arc" />
    </g>
    <path
       style="fill:none;stroke:#cccccc;stroke-width:3;stroke-linecap:butt;stroke-linejoin:miter;stroke-opacity:1;stroke-miterlimit:4;stroke-dasharray:none"
       d="m 199.3545,293.86207 0,719.00103"
       id="path4842"
       inkscape:connector-curvature="0" />
    <path
       style="fill:none;stroke:#cccccc;stroke-width:3;stroke-linecap:butt;stroke-linejoin:miter;stroke-opacity:1;stroke-miterlimit:4;stroke-dasharray:none"
       d="m 399.35452,293.86213 0,719.00107"
       id="path4842-9"
       inkscape:connector-curvature="0" />
    <path
       style="fill:none;stroke:#cccccc;stroke-width:3;stroke-linecap:butt;stroke-linejoin:miter;stroke-opacity:1;stroke-miterlimit:4;stroke-dasharray:none"
       d="m 599.35452,293.86213 0,719.00107"
       id="path4842-95"
       inkscape:connector-curvature="0" />
    <path
       style="fill:none;stroke:#cccccc;stroke-width:3;stroke-linecap:butt;stroke-linejoin:miter;stroke-opacity:1;stroke-miterlimit:4;stroke-dasharray:none"
       d="m 758.50004,653.40766 -719.001021,0"
       id="path4842-5"
       inkscape:connector-curvature="0" />
    <path
       style="fill:none;stroke:#cccccc;stroke-width:3;stroke-linecap:butt;stroke-linejoin:miter;stroke-opacity:1;stroke-miterlimit:4;stroke-dasharray:none"
       d="m 758.50007,453.40766 -719.001049,0"
       id="path4842-9-5"
       inkscape:connector-curvature="0" />
    <path
       style="fill:none;stroke:#cccccc;stroke-width:3;stroke-linecap:butt;stroke-linejoin:miter;stroke-opacity:1;stroke-miterlimit:4;stroke-dasharray:none"
       d="m 758.50008,853.40766 -719.001059,0"
       id="path4842-95-6"
       inkscape:connector-curvature="0" />
  </g>
</svg>
