<?xml version="1.0" encoding="UTF-8" standalone="no"?>
<!-- Created with Inkscape (http://www.inkscape.org/) -->

<svg
   xmlns:dc="http://purl.org/dc/elements/1.1/"
   xmlns:cc="http://creativecommons.org/ns#"
   xmlns:rdf="http://www.w3.org/1999/02/22-rdf-syntax-ns#"
   xmlns:svg="http://www.w3.org/2000/svg"
   xmlns="http://www.w3.org/2000/svg"
   xmlns:sodipodi="http://sodipodi.sourceforge.net/DTD/sodipodi-0.dtd"
   xmlns:inkscape="http://www.inkscape.org/namespaces/inkscape"
   width="800"
   height="800"
   id="svg2987"
   version="1.1"
   inkscape:version="0.48.4 r9939"
   sodipodi:docname="All_states.svg">
  <defs
     id="defs2989" />
  <sodipodi:namedview
     id="base"
     pagecolor="#ffffff"
     bordercolor="#666666"
     borderopacity="1.0"
     inkscape:pageopacity="0.0"
     inkscape:pageshadow="2"
     inkscape:zoom="3.959798"
     inkscape:cx="135.00508"
     inkscape:cy="638.73125"
     inkscape:document-units="px"
     inkscape:current-layer="layer1"
     showgrid="false"
     inkscape:window-width="1920"
     inkscape:window-height="1138"
     inkscape:window-x="1912"
     inkscape:window-y="-8"
     inkscape:window-maximized="1"
     fit-margin-top="0"
     fit-margin-left="0"
     fit-margin-right="0"
     fit-margin-bottom="0" />
  <metadata
     id="metadata2992">
    <rdf:RDF>
      <cc:Work
         rdf:about="">
        <dc:format>image/svg+xml</dc:format>
        <dc:type
           rdf:resource="http://purl.org/dc/dcmitype/StillImage" />
        <dc:title></dc:title>
      </cc:Work>
    </rdf:RDF>
  </metadata>
  <g
     inkscape:label="Layer 1"
     inkscape:groupmode="layer"
     id="layer1"
     transform="translate(0.99999966,-253.36219)">
    <path
       sodipodi:type="arc"
       style="fill:none;stroke:#000000;stroke-width:4.9000001;stroke-miterlimit:4;stroke-opacity:1;stroke-dasharray:none;stroke-dashoffset:0"
       id="path2995"
       sodipodi:cx="128.54192"
       sodipodi:cy="136.09254"
       sodipodi:rx="89.651039"
       sodipodi:ry="89.651039"
       d="m 218.19296,136.09254 c 0,49.51291 -40.13814,89.65104 -89.65104,89.65104 l 0,-89.65104 z"
       transform="translate(-21.919937,224.16858)"
       sodipodi:start="0"
       sodipodi:end="1.5707963" />
    <path
       sodipodi:type="arc"
       style="fill:none;stroke:#000000;stroke-width:4.9000001;stroke-miterlimit:4;stroke-opacity:1;stroke-dasharray:none;stroke-dashoffset:0"
       id="path2995-1"
       sodipodi:cx="128.54192"
       sodipodi:cy="136.09254"
       sodipodi:rx="89.651039"
       sodipodi:ry="89.651039"
       d="m 218.19296,136.09254 c 0,49.51291 -40.13814,89.65104 -89.65104,89.65104 l 0,-89.65104 z"
       transform="matrix(-1,0,0,1,220.64295,224.16858)"
       sodipodi:start="0"
       sodipodi:end="1.5707963" />
    <path
       sodipodi:type="arc"
       style="fill:none;stroke:#000000;stroke-width:4.9000001;stroke-miterlimit:4;stroke-opacity:1;stroke-dasharray:none;stroke-dashoffset:0"
       id="path2995-9"
       sodipodi:cx="128.54192"
       sodipodi:cy="136.09254"
       sodipodi:rx="89.651039"
       sodipodi:ry="89.651039"
       d="m 218.19296,136.09254 c 0,49.51291 -40.13814,89.65104 -89.65104,89.65104 l 0,-89.65104 z"
       transform="matrix(1,0,0,-1,-21.919937,482.90608)"
       sodipodi:start="0"
       sodipodi:end="1.5707963" />
    <path
       sodipodi:type="arc"
       style="fill:none;stroke:#000000;stroke-width:4.9000001;stroke-miterlimit:4;stroke-opacity:1;stroke-dasharray:none;stroke-dashoffset:0"
       id="path2995-1-4"
       sodipodi:cx="128.54192"
       sodipodi:cy="136.09254"
       sodipodi:rx="89.651039"
       sodipodi:ry="89.651039"
       d="m 218.19296,136.09254 c 0,49.51291 -40.13814,89.65104 -89.65104,89.65104 l 0,-89.65104 z"
       transform="matrix(-1,0,0,-1,220.64295,482.90608)"
       sodipodi:start="0"
       sodipodi:end="1.5707963" />
    <path
       sodipodi:type="arc"
       style="fill:none;stroke:#000000;stroke-width:4.9000001;stroke-miterlimit:4;stroke-opacity:1;stroke-dasharray:none;stroke-dashoffset:0"
       id="path2995-2"
       sodipodi:cx="128.54192"
       sodipodi:cy="136.09254"
       sodipodi:rx="89.651039"
       sodipodi:ry="89.651039"
       d="m 218.19296,136.09254 c 0,49.51291 -40.13814,89.65104 -89.65104,89.65104 l 0,-89.65104 z"
       transform="translate(178.08007,224.16858)"
       sodipodi:start="0"
       sodipodi:end="1.5707963" />
    <path
       sodipodi:type="arc"
       style="fill:none;stroke:#000000;stroke-width:4.9000001;stroke-miterlimit:4;stroke-opacity:1;stroke-dasharray:none;stroke-dashoffset:0"
       id="path2995-1-45"
       sodipodi:cx="128.54192"
       sodipodi:cy="136.09254"
       sodipodi:rx="89.651039"
       sodipodi:ry="89.651039"
       d="m 218.19296,136.09254 c 0,49.51291 -40.13814,89.65104 -89.65104,89.65104 l 0,-89.65104 z"
       transform="matrix(-1,0,0,1,420.64296,224.16858)"
       sodipodi:start="0"
       sodipodi:end="1.5707963" />
    <path
       sodipodi:type="arc"
       style="fill:#ff8000;fill-opacity:1;stroke:#000000;stroke-width:4.9000001;stroke-miterlimit:4;stroke-opacity:1;stroke-dasharray:none;stroke-dashoffset:0"
       id="path2995-9-1"
       sodipodi:cx="128.54192"
       sodipodi:cy="136.09254"
       sodipodi:rx="89.651039"
       sodipodi:ry="89.651039"
       d="m 218.19296,136.09254 c 0,49.51291 -40.13814,89.65104 -89.65104,89.65104 l 0,-89.65104 z"
       transform="matrix(1,0,0,-1,178.08007,482.90608)"
       sodipodi:start="0"
       sodipodi:end="1.5707963" />
    <path
       sodipodi:type="arc"
       style="fill:none;stroke:#000000;stroke-width:4.9000001;stroke-miterlimit:4;stroke-opacity:1;stroke-dasharray:none;stroke-dashoffset:0"
       id="path2995-1-4-7"
       sodipodi:cx="128.54192"
       sodipodi:cy="136.09254"
       sodipodi:rx="89.651039"
       sodipodi:ry="89.651039"
       d="m 218.19296,136.09254 c 0,49.51291 -40.13814,89.65104 -89.65104,89.65104 l 0,-89.65104 z"
       transform="matrix(-1,0,0,-1,420.64296,482.90608)"
       sodipodi:start="0"
       sodipodi:end="1.5707963" />
    <path
       sodipodi:type="arc"
       style="fill:#ff8000;fill-opacity:1;stroke:#000000;stroke-width:4.9000001;stroke-miterlimit:4;stroke-opacity:1;stroke-dasharray:none;stroke-dashoffset:0"
       id="path2995-5"
       sodipodi:cx="128.54192"
       sodipodi:cy="136.09254"
       sodipodi:rx="89.651039"
       sodipodi:ry="89.651039"
       d="m 218.19296,136.09254 c 0,49.51291 -40.13814,89.65104 -89.65104,89.65104 l 0,-89.65104 z"
       transform="translate(378.08007,224.16858)"
       sodipodi:start="0"
       sodipodi:end="1.5707963" />
    <path
       sodipodi:type="arc"
       style="fill:none;stroke:#000000;stroke-width:4.9000001;stroke-miterlimit:4;stroke-opacity:1;stroke-dasharray:none;stroke-dashoffset:0"
       id="path2995-1-2"
       sodipodi:cx="128.54192"
       sodipodi:cy="136.09254"
       sodipodi:rx="89.651039"
       sodipodi:ry="89.651039"
       d="m 218.19296,136.09254 c 0,49.51291 -40.13814,89.65104 -89.65104,89.65104 l 0,-89.65104 z"
       transform="matrix(-1,0,0,1,620.64296,224.16858)"
       sodipodi:start="0"
       sodipodi:end="1.5707963" />
    <path
       sodipodi:type="arc"
       style="fill:none;stroke:#000000;stroke-width:4.9000001;stroke-miterlimit:4;stroke-opacity:1;stroke-dasharray:none;stroke-dashoffset:0"
       id="path2995-9-6"
       sodipodi:cx="128.54192"
       sodipodi:cy="136.09254"
       sodipodi:rx="89.651039"
       sodipodi:ry="89.651039"
       d="m 218.19296,136.09254 c 0,49.51291 -40.13814,89.65104 -89.65104,89.65104 l 0,-89.65104 z"
       transform="matrix(1,0,0,-1,378.08007,482.90608)"
       sodipodi:start="0"
       sodipodi:end="1.5707963" />
    <path
       sodipodi:type="arc"
       style="fill:none;stroke:#000000;stroke-width:4.9000001;stroke-miterlimit:4;stroke-opacity:1;stroke-dasharray:none;stroke-dashoffset:0"
       id="path2995-1-4-1"
       sodipodi:cx="128.54192"
       sodipodi:cy="136.09254"
       sodipodi:rx="89.651039"
       sodipodi:ry="89.651039"
       d="m 218.19296,136.09254 c 0,49.51291 -40.13814,89.65104 -89.65104,89.65104 l 0,-89.65104 z"
       transform="matrix(-1,0,0,-1,620.64296,482.90608)"
       sodipodi:start="0"
       sodipodi:end="1.5707963" />
    <path
       sodipodi:type="arc"
       style="fill:none;stroke:#000000;stroke-width:4.9000001;stroke-miterlimit:4;stroke-opacity:1;stroke-dasharray:none;stroke-dashoffset:0"
       id="path2995-3"
       sodipodi:cx="128.54192"
       sodipodi:cy="136.09254"
       sodipodi:rx="89.651039"
       sodipodi:ry="89.651039"
       d="m 218.19296,136.09254 c 0,49.51291 -40.13814,89.65104 -89.65104,89.65104 l 0,-89.65104 z"
       transform="translate(578.08008,224.16858)"
       sodipodi:start="0"
       sodipodi:end="1.5707963" />
    <path
       sodipodi:type="arc"
       style="fill:#ff8000;fill-opacity:1;stroke:#000000;stroke-width:4.9000001;stroke-miterlimit:4;stroke-opacity:1;stroke-dasharray:none;stroke-dashoffset:0"
       id="path2995-1-22"
       sodipodi:cx="128.54192"
       sodipodi:cy="136.09254"
       sodipodi:rx="89.651039"
       sodipodi:ry="89.651039"
       d="m 218.19296,136.09254 c 0,49.51291 -40.13814,89.65104 -89.65104,89.65104 l 0,-89.65104 z"
       transform="matrix(-1,0,0,1,820.64297,224.16858)"
       sodipodi:start="0"
       sodipodi:end="1.5707963" />
    <path
       sodipodi:type="arc"
       style="fill:none;stroke:#000000;stroke-width:4.9000001;stroke-miterlimit:4;stroke-opacity:1;stroke-dasharray:none;stroke-dashoffset:0"
       id="path2995-9-68"
       sodipodi:cx="128.54192"
       sodipodi:cy="136.09254"
       sodipodi:rx="89.651039"
       sodipodi:ry="89.651039"
       d="m 218.19296,136.09254 c 0,49.51291 -40.13814,89.65104 -89.65104,89.65104 l 0,-89.65104 z"
       transform="matrix(1,0,0,-1,578.08008,482.90608)"
       sodipodi:start="0"
       sodipodi:end="1.5707963" />
    <path
       sodipodi:type="arc"
       style="fill:none;stroke:#000000;stroke-width:4.9000001;stroke-miterlimit:4;stroke-opacity:1;stroke-dasharray:none;stroke-dashoffset:0"
       id="path2995-1-4-5"
       sodipodi:cx="128.54192"
       sodipodi:cy="136.09254"
       sodipodi:rx="89.651039"
       sodipodi:ry="89.651039"
       d="m 218.19296,136.09254 c 0,49.51291 -40.13814,89.65104 -89.65104,89.65104 l 0,-89.65104 z"
       transform="matrix(-1,0,0,-1,820.64297,482.90608)"
       sodipodi:start="0"
       sodipodi:end="1.5707963" />
    <path
       sodipodi:type="arc"
       style="fill:none;stroke:#000000;stroke-width:4.9000001;stroke-miterlimit:4;stroke-opacity:1;stroke-dasharray:none;stroke-dashoffset:0"
       id="path2995-18"
       sodipodi:cx="128.54192"
       sodipodi:cy="136.09254"
       sodipodi:rx="89.651039"
       sodipodi:ry="89.651039"
       d="m 218.19296,136.09254 c 0,49.51291 -40.13814,89.65104 -89.65104,89.65104 l 0,-89.65104 z"
       transform="translate(-21.919937,424.1686)"
       sodipodi:start="0"
       sodipodi:end="1.5707963" />
    <path
       sodipodi:type="arc"
       style="fill:none;stroke:#000000;stroke-width:4.9000001;stroke-miterlimit:4;stroke-opacity:1;stroke-dasharray:none;stroke-dashoffset:0"
       id="path2995-1-9"
       sodipodi:cx="128.54192"
       sodipodi:cy="136.09254"
       sodipodi:rx="89.651039"
       sodipodi:ry="89.651039"
       d="m 218.19296,136.09254 c 0,49.51291 -40.13814,89.65104 -89.65104,89.65104 l 0,-89.65104 z"
       transform="matrix(-1,0,0,1,220.64295,424.1686)"
       sodipodi:start="0"
       sodipodi:end="1.5707963" />
    <path
       sodipodi:type="arc"
       style="fill:none;stroke:#000000;stroke-width:4.9000001;stroke-miterlimit:4;stroke-opacity:1;stroke-dasharray:none;stroke-dashoffset:0"
       id="path2995-9-7"
       sodipodi:cx="128.54192"
       sodipodi:cy="136.09254"
       sodipodi:rx="89.651039"
       sodipodi:ry="89.651039"
       d="m 218.19296,136.09254 c 0,49.51291 -40.13814,89.65104 -89.65104,89.65104 l 0,-89.65104 z"
       transform="matrix(1,0,0,-1,-21.919937,682.90608)"
       sodipodi:start="0"
       sodipodi:end="1.5707963" />
    <path
       sodipodi:type="arc"
       style="fill:#ff8000;fill-opacity:1;stroke:#000000;stroke-width:4.9000001;stroke-miterlimit:4;stroke-opacity:1;stroke-dasharray:none;stroke-dashoffset:0"
       id="path2995-1-4-9"
       sodipodi:cx="128.54192"
       sodipodi:cy="136.09254"
       sodipodi:rx="89.651039"
       sodipodi:ry="89.651039"
       d="m 218.19296,136.09254 c 0,49.51291 -40.13814,89.65104 -89.65104,89.65104 l 0,-89.65104 z"
       transform="matrix(-1,0,0,-1,220.64295,682.90608)"
       sodipodi:start="0"
       sodipodi:end="1.5707963" />
    <path
       sodipodi:type="arc"
       style="fill:none;stroke:#000000;stroke-width:4.9000001;stroke-miterlimit:4;stroke-opacity:1;stroke-dasharray:none;stroke-dashoffset:0"
       id="path2995-31"
       sodipodi:cx="128.54192"
       sodipodi:cy="136.09254"
       sodipodi:rx="89.651039"
       sodipodi:ry="89.651039"
       d="m 218.19296,136.09254 c 0,49.51291 -40.13814,89.65104 -89.65104,89.65104 l 0,-89.65104 z"
       transform="translate(178.08007,424.16862)"
       sodipodi:start="0"
       sodipodi:end="1.5707963" />
    <path
       sodipodi:type="arc"
       style="fill:none;stroke:#000000;stroke-width:4.9000001;stroke-miterlimit:4;stroke-opacity:1;stroke-dasharray:none;stroke-dashoffset:0"
       id="path2995-1-23"
       sodipodi:cx="128.54192"
       sodipodi:cy="136.09254"
       sodipodi:rx="89.651039"
       sodipodi:ry="89.651039"
       d="m 218.19296,136.09254 c 0,49.51291 -40.13814,89.65104 -89.65104,89.65104 l 0,-89.65104 z"
       transform="matrix(-1,0,0,1,420.64296,424.16862)"
       sodipodi:start="0"
       sodipodi:end="1.5707963" />
    <path
       sodipodi:type="arc"
       style="fill:#ff8000;fill-opacity:1;stroke:#000000;stroke-width:4.9000001;stroke-miterlimit:4;stroke-opacity:1;stroke-dasharray:none;stroke-dashoffset:0"
       id="path2995-9-4"
       sodipodi:cx="128.54192"
       sodipodi:cy="136.09254"
       sodipodi:rx="89.651039"
       sodipodi:ry="89.651039"
       d="m 218.19296,136.09254 c 0,49.51291 -40.13814,89.65104 -89.65104,89.65104 l 0,-89.65104 z"
       transform="matrix(1,0,0,-1,178.08007,682.90608)"
       sodipodi:start="0"
       sodipodi:end="1.5707963" />
    <path
       sodipodi:type="arc"
       style="fill:#ff8000;fill-opacity:1;stroke:#000000;stroke-width:4.9000001;stroke-miterlimit:4;stroke-opacity:1;stroke-dasharray:none;stroke-dashoffset:0"
       id="path2995-1-4-11"
       sodipodi:cx="128.54192"
       sodipodi:cy="136.09254"
       sodipodi:rx="89.651039"
       sodipodi:ry="89.651039"
       d="m 218.19296,136.09254 c 0,49.51291 -40.13814,89.65104 -89.65104,89.65104 l 0,-89.65104 z"
       transform="matrix(-1,0,0,-1,420.64296,682.90608)"
       sodipodi:start="0"
       sodipodi:end="1.5707963" />
    <path
       sodipodi:type="arc"
       style="fill:#ff8000;fill-opacity:1;stroke:#000000;stroke-width:4.9000001;stroke-miterlimit:4;stroke-opacity:1;stroke-dasharray:none;stroke-dashoffset:0"
       id="path2995-4"
       sodipodi:cx="128.54192"
       sodipodi:cy="136.09254"
       sodipodi:rx="89.651039"
       sodipodi:ry="89.651039"
       d="m 218.19296,136.09254 c 0,49.51291 -40.13814,89.65104 -89.65104,89.65104 l 0,-89.65104 z"
       transform="translate(378.08007,424.16858)"
       sodipodi:start="0"
       sodipodi:end="1.5707963" />
    <path
       sodipodi:type="arc"
       style="fill:none;stroke:#000000;stroke-width:4.9000001;stroke-miterlimit:4;stroke-opacity:1;stroke-dasharray:none;stroke-dashoffset:0"
       id="path2995-1-27"
       sodipodi:cx="128.54192"
       sodipodi:cy="136.09254"
       sodipodi:rx="89.651039"
       sodipodi:ry="89.651039"
       d="m 218.19296,136.09254 c 0,49.51291 -40.13814,89.65104 -89.65104,89.65104 l 0,-89.65104 z"
       transform="matrix(-1,0,0,1,620.64296,424.16858)"
       sodipodi:start="0"
       sodipodi:end="1.5707963" />
    <path
       sodipodi:type="arc"
       style="fill:none;stroke:#000000;stroke-width:4.9000001;stroke-miterlimit:4;stroke-opacity:1;stroke-dasharray:none;stroke-dashoffset:0"
       id="path2995-9-3"
       sodipodi:cx="128.54192"
       sodipodi:cy="136.09254"
       sodipodi:rx="89.651039"
       sodipodi:ry="89.651039"
       d="m 218.19296,136.09254 c 0,49.51291 -40.13814,89.65104 -89.65104,89.65104 l 0,-89.65104 z"
       transform="matrix(1,0,0,-1,378.08007,682.90608)"
       sodipodi:start="0"
       sodipodi:end="1.5707963" />
    <path
       sodipodi:type="arc"
       style="fill:#ff8000;fill-opacity:1;stroke:#000000;stroke-width:4.9000001;stroke-miterlimit:4;stroke-opacity:1;stroke-dasharray:none;stroke-dashoffset:0"
       id="path2995-1-4-19"
       sodipodi:cx="128.54192"
       sodipodi:cy="136.09254"
       sodipodi:rx="89.651039"
       sodipodi:ry="89.651039"
       d="m 218.19296,136.09254 c 0,49.51291 -40.13814,89.65104 -89.65104,89.65104 l 0,-89.65104 z"
       transform="matrix(-1,0,0,-1,620.64296,682.90608)"
       sodipodi:start="0"
       sodipodi:end="1.5707963" />
    <path
       sodipodi:type="arc"
       style="fill:none;stroke:#000000;stroke-width:4.9000001;stroke-miterlimit:4;stroke-opacity:1;stroke-dasharray:none;stroke-dashoffset:0"
       id="path2995-0"
       sodipodi:cx="128.54192"
       sodipodi:cy="136.09254"
       sodipodi:rx="89.651039"
       sodipodi:ry="89.651039"
       d="m 218.19296,136.09254 c 0,49.51291 -40.13814,89.65104 -89.65104,89.65104 l 0,-89.65104 z"
       transform="translate(578.08007,424.1686)"
       sodipodi:start="0"
       sodipodi:end="1.5707963" />
    <path
       sodipodi:type="arc"
       style="fill:#ff8000;fill-opacity:1;stroke:#000000;stroke-width:4.9000001;stroke-miterlimit:4;stroke-opacity:1;stroke-dasharray:none;stroke-dashoffset:0"
       id="path2995-1-28"
       sodipodi:cx="128.54192"
       sodipodi:cy="136.09254"
       sodipodi:rx="89.651039"
       sodipodi:ry="89.651039"
       d="m 218.19296,136.09254 c 0,49.51291 -40.13814,89.65104 -89.65104,89.65104 l 0,-89.65104 z"
       transform="matrix(-1,0,0,1,820.64296,424.1686)"
       sodipodi:start="0"
       sodipodi:end="1.5707963" />
    <path
       sodipodi:type="arc"
       style="fill:none;stroke:#000000;stroke-width:4.9000001;stroke-miterlimit:4;stroke-opacity:1;stroke-dasharray:none;stroke-dashoffset:0"
       id="path2995-9-0"
       sodipodi:cx="128.54192"
       sodipodi:cy="136.09254"
       sodipodi:rx="89.651039"
       sodipodi:ry="89.651039"
       d="m 218.19296,136.09254 c 0,49.51291 -40.13814,89.65104 -89.65104,89.65104 l 0,-89.65104 z"
       transform="matrix(1,0,0,-1,578.08007,682.90608)"
       sodipodi:start="0"
       sodipodi:end="1.5707963" />
    <path
       sodipodi:type="arc"
       style="fill:#ff8000;fill-opacity:1;stroke:#000000;stroke-width:4.9000001;stroke-miterlimit:4;stroke-opacity:1;stroke-dasharray:none;stroke-dashoffset:0"
       id="path2995-1-4-2"
       sodipodi:cx="128.54192"
       sodipodi:cy="136.09254"
       sodipodi:rx="89.651039"
       sodipodi:ry="89.651039"
       d="m 218.19296,136.09254 c 0,49.51291 -40.13814,89.65104 -89.65104,89.65104 l 0,-89.65104 z"
       transform="matrix(-1,0,0,-1,820.64296,682.90608)"
       sodipodi:start="0"
       sodipodi:end="1.5707963" />
    <path
       sodipodi:type="arc"
       style="fill:#ff8000;fill-opacity:1;stroke:#000000;stroke-width:4.9000001;stroke-miterlimit:4;stroke-opacity:1;stroke-dasharray:none;stroke-dashoffset:0"
       id="path2995-09"
       sodipodi:cx="128.54192"
       sodipodi:cy="136.09254"
       sodipodi:rx="89.651039"
       sodipodi:ry="89.651039"
       d="m 218.19296,136.09254 c 0,49.51291 -40.13814,89.65104 -89.65104,89.65104 l 0,-89.65104 z"
       transform="translate(-21.919937,624.16861)"
       sodipodi:start="0"
       sodipodi:end="1.5707963" />
    <path
       sodipodi:type="arc"
       style="fill:none;stroke:#000000;stroke-width:4.9000001;stroke-miterlimit:4;stroke-opacity:1;stroke-dasharray:none;stroke-dashoffset:0"
       id="path2995-1-0"
       sodipodi:cx="128.54192"
       sodipodi:cy="136.09254"
       sodipodi:rx="89.651039"
       sodipodi:ry="89.651039"
       d="m 218.19296,136.09254 c 0,49.51291 -40.13814,89.65104 -89.65104,89.65104 l 0,-89.65104 z"
       transform="matrix(-1,0,0,1,220.64295,624.16861)"
       sodipodi:start="0"
       sodipodi:end="1.5707963" />
    <path
       sodipodi:type="arc"
       style="fill:#ff8000;fill-opacity:1;stroke:#000000;stroke-width:4.9000001;stroke-miterlimit:4;stroke-opacity:1;stroke-dasharray:none;stroke-dashoffset:0"
       id="path2995-9-61"
       sodipodi:cx="128.54192"
       sodipodi:cy="136.09254"
       sodipodi:rx="89.651039"
       sodipodi:ry="89.651039"
       d="m 218.19296,136.09254 c 0,49.51291 -40.13814,89.65104 -89.65104,89.65104 l 0,-89.65104 z"
       transform="matrix(1,0,0,-1,-21.919937,882.90608)"
       sodipodi:start="0"
       sodipodi:end="1.5707963" />
    <path
       sodipodi:type="arc"
       style="fill:none;stroke:#000000;stroke-width:4.9000001;stroke-miterlimit:4;stroke-opacity:1;stroke-dasharray:none;stroke-dashoffset:0"
       id="path2995-1-4-3"
       sodipodi:cx="128.54192"
       sodipodi:cy="136.09254"
       sodipodi:rx="89.651039"
       sodipodi:ry="89.651039"
       d="m 218.19296,136.09254 c 0,49.51291 -40.13814,89.65104 -89.65104,89.65104 l 0,-89.65104 z"
       transform="matrix(-1,0,0,-1,220.64295,882.90608)"
       sodipodi:start="0"
       sodipodi:end="1.5707963" />
    <path
       sodipodi:type="arc"
       style="fill:none;stroke:#000000;stroke-width:4.9000001;stroke-miterlimit:4;stroke-opacity:1;stroke-dasharray:none;stroke-dashoffset:0"
       id="path2995-44"
       sodipodi:cx="128.54192"
       sodipodi:cy="136.09254"
       sodipodi:rx="89.651039"
       sodipodi:ry="89.651039"
       d="m 218.19296,136.09254 c 0,49.51291 -40.13814,89.65104 -89.65104,89.65104 l 0,-89.65104 z"
       transform="translate(178.08007,624.16859)"
       sodipodi:start="0"
       sodipodi:end="1.5707963" />
    <path
       sodipodi:type="arc"
       style="fill:#ff8000;fill-opacity:1;stroke:#000000;stroke-width:4.9000001;stroke-miterlimit:4;stroke-opacity:1;stroke-dasharray:none;stroke-dashoffset:0"
       id="path2995-1-6"
       sodipodi:cx="128.54192"
       sodipodi:cy="136.09254"
       sodipodi:rx="89.651039"
       sodipodi:ry="89.651039"
       d="m 218.19296,136.09254 c 0,49.51291 -40.13814,89.65104 -89.65104,89.65104 l 0,-89.65104 z"
       transform="matrix(-1,0,0,1,420.64296,624.16859)"
       sodipodi:start="0"
       sodipodi:end="1.5707963" />
    <path
       sodipodi:type="arc"
       style="fill:#ff8000;fill-opacity:1;stroke:#000000;stroke-width:4.9000001;stroke-miterlimit:4;stroke-opacity:1;stroke-dasharray:none;stroke-dashoffset:0"
       id="path2995-9-618"
       sodipodi:cx="128.54192"
       sodipodi:cy="136.09254"
       sodipodi:rx="89.651039"
       sodipodi:ry="89.651039"
       d="m 218.19296,136.09254 c 0,49.51291 -40.13814,89.65104 -89.65104,89.65104 l 0,-89.65104 z"
       transform="matrix(1,0,0,-1,178.08007,882.90608)"
       sodipodi:start="0"
       sodipodi:end="1.5707963" />
    <path
       sodipodi:type="arc"
       style="fill:none;stroke:#000000;stroke-width:4.9000001;stroke-miterlimit:4;stroke-opacity:1;stroke-dasharray:none;stroke-dashoffset:0"
       id="path2995-1-4-4"
       sodipodi:cx="128.54192"
       sodipodi:cy="136.09254"
       sodipodi:rx="89.651039"
       sodipodi:ry="89.651039"
       d="m 218.19296,136.09254 c 0,49.51291 -40.13814,89.65104 -89.65104,89.65104 l 0,-89.65104 z"
       transform="matrix(-1,0,0,-1,420.64296,882.90608)"
       sodipodi:start="0"
       sodipodi:end="1.5707963" />
    <path
       sodipodi:type="arc"
       style="fill:#ff8000;fill-opacity:1;stroke:#000000;stroke-width:4.9000001;stroke-miterlimit:4;stroke-opacity:1;stroke-dasharray:none;stroke-dashoffset:0"
       id="path2995-7"
       sodipodi:cx="128.54192"
       sodipodi:cy="136.09254"
       sodipodi:rx="89.651039"
       sodipodi:ry="89.651039"
       d="m 218.19296,136.09254 c 0,49.51291 -40.13814,89.65104 -89.65104,89.65104 l 0,-89.65104 z"
       transform="translate(378.08007,624.1686)"
       sodipodi:start="0"
       sodipodi:end="1.5707963" />
    <path
       sodipodi:type="arc"
       style="fill:#ff8000;fill-opacity:1;stroke:#000000;stroke-width:4.9000001;stroke-miterlimit:4;stroke-opacity:1;stroke-dasharray:none;stroke-dashoffset:0"
       id="path2995-1-8"
       sodipodi:cx="128.54192"
       sodipodi:cy="136.09254"
       sodipodi:rx="89.651039"
       sodipodi:ry="89.651039"
       d="m 218.19296,136.09254 c 0,49.51291 -40.13814,89.65104 -89.65104,89.65104 l 0,-89.65104 z"
       transform="matrix(-1,0,0,1,620.64296,624.1686)"
       sodipodi:start="0"
       sodipodi:end="1.5707963" />
    <path
       sodipodi:type="arc"
       style="fill:none;stroke:#000000;stroke-width:4.9000001;stroke-miterlimit:4;stroke-opacity:1;stroke-dasharray:none;stroke-dashoffset:0"
       id="path2995-9-2"
       sodipodi:cx="128.54192"
       sodipodi:cy="136.09254"
       sodipodi:rx="89.651039"
       sodipodi:ry="89.651039"
       d="m 218.19296,136.09254 c 0,49.51291 -40.13814,89.65104 -89.65104,89.65104 l 0,-89.65104 z"
       transform="matrix(1,0,0,-1,378.08007,882.90608)"
       sodipodi:start="0"
       sodipodi:end="1.5707963" />
    <path
       sodipodi:type="arc"
       style="fill:none;stroke:#000000;stroke-width:4.9000001;stroke-miterlimit:4;stroke-opacity:1;stroke-dasharray:none;stroke-dashoffset:0"
       id="path2995-1-4-91"
       sodipodi:cx="128.54192"
       sodipodi:cy="136.09254"
       sodipodi:rx="89.651039"
       sodipodi:ry="89.651039"
       d="m 218.19296,136.09254 c 0,49.51291 -40.13814,89.65104 -89.65104,89.65104 l 0,-89.65104 z"
       transform="matrix(-1,0,0,-1,620.64296,882.90608)"
       sodipodi:start="0"
       sodipodi:end="1.5707963" />
    <path
       sodipodi:type="arc"
       style="fill:none;stroke:#000000;stroke-width:4.9000001;stroke-miterlimit:4;stroke-opacity:1;stroke-dasharray:none;stroke-dashoffset:0"
       id="path2995-8"
       sodipodi:cx="128.54192"
       sodipodi:cy="136.09254"
       sodipodi:rx="89.651039"
       sodipodi:ry="89.651039"
       d="m 218.19296,136.09254 c 0,49.51291 -40.13814,89.65104 -89.65104,89.65104 l 0,-89.65104 z"
       transform="translate(578.08007,624.1686)"
       sodipodi:start="0"
       sodipodi:end="1.5707963" />
    <path
       sodipodi:type="arc"
       style="fill:#ff8000;fill-opacity:1;stroke:#000000;stroke-width:4.9000001;stroke-miterlimit:4;stroke-opacity:1;stroke-dasharray:none;stroke-dashoffset:0"
       id="path2995-1-40"
       sodipodi:cx="128.54192"
       sodipodi:cy="136.09254"
       sodipodi:rx="89.651039"
       sodipodi:ry="89.651039"
       d="m 218.19296,136.09254 c 0,49.51291 -40.13814,89.65104 -89.65104,89.65104 l 0,-89.65104 z"
       transform="matrix(-1,0,0,1,820.64296,624.1686)"
       sodipodi:start="0"
       sodipodi:end="1.5707963" />
    <path
       sodipodi:type="arc"
       style="fill:#ff8000;fill-opacity:1;stroke:#000000;stroke-width:4.9000001;stroke-miterlimit:4;stroke-opacity:1;stroke-dasharray:none;stroke-dashoffset:0"
       id="path2995-9-36"
       sodipodi:cx="128.54192"
       sodipodi:cy="136.09254"
       sodipodi:rx="89.651039"
       sodipodi:ry="89.651039"
       d="m 218.19296,136.09254 c 0,49.51291 -40.13814,89.65104 -89.65104,89.65104 l 0,-89.65104 z"
       transform="matrix(1,0,0,-1,578.08007,882.90608)"
       sodipodi:start="0"
       sodipodi:end="1.5707963" />
    <path
       sodipodi:type="arc"
       style="fill:#ff8000;fill-opacity:1;stroke:#000000;stroke-width:4.9000001;stroke-miterlimit:4;stroke-opacity:1;stroke-dasharray:none;stroke-dashoffset:0"
       id="path2995-1-4-15"
       sodipodi:cx="128.54192"
       sodipodi:cy="136.09254"
       sodipodi:rx="89.651039"
       sodipodi:ry="89.651039"
       d="m 218.19296,136.09254 c 0,49.51291 -40.13814,89.65104 -89.65104,89.65104 l 0,-89.65104 z"
       transform="matrix(-1,0,0,-1,820.64296,882.90608)"
       sodipodi:start="0"
       sodipodi:end="1.5707963" />
    <path
       sodipodi:type="arc"
       style="fill:#ff8000;fill-opacity:1;stroke:#000000;stroke-width:4.9000001;stroke-miterlimit:4;stroke-opacity:1;stroke-dasharray:none;stroke-dashoffset:0"
       id="path2995-73"
       sodipodi:cx="128.54192"
       sodipodi:cy="136.09254"
       sodipodi:rx="89.651039"
       sodipodi:ry="89.651039"
       d="m 218.19296,136.09254 c 0,49.51291 -40.13814,89.65104 -89.65104,89.65104 l 0,-89.65104 z"
       transform="translate(-21.919937,824.1686)"
       sodipodi:start="0"
       sodipodi:end="1.5707963" />
    <path
       sodipodi:type="arc"
       style="fill:none;stroke:#000000;stroke-width:4.9000001;stroke-miterlimit:4;stroke-opacity:1;stroke-dasharray:none;stroke-dashoffset:0"
       id="path2995-1-7"
       sodipodi:cx="128.54192"
       sodipodi:cy="136.09254"
       sodipodi:rx="89.651039"
       sodipodi:ry="89.651039"
       d="m 218.19296,136.09254 c 0,49.51291 -40.13814,89.65104 -89.65104,89.65104 l 0,-89.65104 z"
       transform="matrix(-1,0,0,1,220.64295,824.1686)"
       sodipodi:start="0"
       sodipodi:end="1.5707963" />
    <path
       sodipodi:type="arc"
       style="fill:#ff8000;fill-opacity:1;stroke:#000000;stroke-width:4.9000001;stroke-miterlimit:4;stroke-opacity:1;stroke-dasharray:none;stroke-dashoffset:0"
       id="path2995-9-01"
       sodipodi:cx="128.54192"
       sodipodi:cy="136.09254"
       sodipodi:rx="89.651039"
       sodipodi:ry="89.651039"
       d="m 218.19296,136.09254 c 0,49.51291 -40.13814,89.65104 -89.65104,89.65104 l 0,-89.65104 z"
       transform="matrix(1,0,0,-1,-21.919937,1082.9061)"
       sodipodi:start="0"
       sodipodi:end="1.5707963" />
    <path
       sodipodi:type="arc"
       style="fill:#ff8000;fill-opacity:1;stroke:#000000;stroke-width:4.9000001;stroke-miterlimit:4;stroke-opacity:1;stroke-dasharray:none;stroke-dashoffset:0"
       id="path2995-1-4-6"
       sodipodi:cx="128.54192"
       sodipodi:cy="136.09254"
       sodipodi:rx="89.651039"
       sodipodi:ry="89.651039"
       d="m 218.19296,136.09254 c 0,49.51291 -40.13814,89.65104 -89.65104,89.65104 l 0,-89.65104 z"
       transform="matrix(-1,0,0,-1,220.64295,1082.9061)"
       sodipodi:start="0"
       sodipodi:end="1.5707963" />
    <path
       sodipodi:type="arc"
       style="fill:#ff8000;fill-opacity:1;stroke:#000000;stroke-width:4.9000001;stroke-miterlimit:4;stroke-opacity:1;stroke-dasharray:none;stroke-dashoffset:0"
       id="path2995-12"
       sodipodi:cx="128.54192"
       sodipodi:cy="136.09254"
       sodipodi:rx="89.651039"
       sodipodi:ry="89.651039"
       d="m 218.19296,136.09254 c 0,49.51291 -40.13814,89.65104 -89.65104,89.65104 l 0,-89.65104 z"
       transform="translate(178.08007,824.1686)"
       sodipodi:start="0"
       sodipodi:end="1.5707963" />
    <path
       sodipodi:type="arc"
       style="fill:#ff8000;fill-opacity:1;stroke:#000000;stroke-width:4.9000001;stroke-miterlimit:4;stroke-opacity:1;stroke-dasharray:none;stroke-dashoffset:0"
       id="path2995-1-00"
       sodipodi:cx="128.54192"
       sodipodi:cy="136.09254"
       sodipodi:rx="89.651039"
       sodipodi:ry="89.651039"
       d="m 218.19296,136.09254 c 0,49.51291 -40.13814,89.65104 -89.65104,89.65104 l 0,-89.65104 z"
       transform="matrix(-1,0,0,1,420.64296,824.1686)"
       sodipodi:start="0"
       sodipodi:end="1.5707963" />
    <path
       sodipodi:type="arc"
       style="fill:#ff8000;fill-opacity:1;stroke:#000000;stroke-width:4.9000001;stroke-miterlimit:4;stroke-opacity:1;stroke-dasharray:none;stroke-dashoffset:0"
       id="path2995-9-60"
       sodipodi:cx="128.54192"
       sodipodi:cy="136.09254"
       sodipodi:rx="89.651039"
       sodipodi:ry="89.651039"
       d="m 218.19296,136.09254 c 0,49.51291 -40.13814,89.65104 -89.65104,89.65104 l 0,-89.65104 z"
       transform="matrix(1,0,0,-1,178.08007,1082.9061)"
       sodipodi:start="0"
       sodipodi:end="1.5707963" />
    <path
       sodipodi:type="arc"
       style="fill:none;stroke:#000000;stroke-width:4.9000001;stroke-miterlimit:4;stroke-opacity:1;stroke-dasharray:none;stroke-dashoffset:0"
       id="path2995-1-4-71"
       sodipodi:cx="128.54192"
       sodipodi:cy="136.09254"
       sodipodi:rx="89.651039"
       sodipodi:ry="89.651039"
       d="m 218.19296,136.09254 c 0,49.51291 -40.13814,89.65104 -89.65104,89.65104 l 0,-89.65104 z"
       transform="matrix(-1,0,0,-1,420.64296,1082.9061)"
       sodipodi:start="0"
       sodipodi:end="1.5707963" />
    <path
       sodipodi:type="arc"
       style="fill:#ff8000;fill-opacity:1;stroke:#000000;stroke-width:4.9000001;stroke-miterlimit:4;stroke-opacity:1;stroke-dasharray:none;stroke-dashoffset:0"
       id="path2995-733"
       sodipodi:cx="128.54192"
       sodipodi:cy="136.09254"
       sodipodi:rx="89.651039"
       sodipodi:ry="89.651039"
       d="m 218.19296,136.09254 c 0,49.51291 -40.13814,89.65104 -89.65104,89.65104 l 0,-89.65104 z"
       transform="translate(378.08007,824.1686)"
       sodipodi:start="0"
       sodipodi:end="1.5707963" />
    <path
       sodipodi:type="arc"
       style="fill:#ff8000;fill-opacity:1;stroke:#000000;stroke-width:4.9000001;stroke-miterlimit:4;stroke-opacity:1;stroke-dasharray:none;stroke-dashoffset:0"
       id="path2995-1-5"
       sodipodi:cx="128.54192"
       sodipodi:cy="136.09254"
       sodipodi:rx="89.651039"
       sodipodi:ry="89.651039"
       d="m 218.19296,136.09254 c 0,49.51291 -40.13814,89.65104 -89.65104,89.65104 l 0,-89.65104 z"
       transform="matrix(-1,0,0,1,620.64296,824.1686)"
       sodipodi:start="0"
       sodipodi:end="1.5707963" />
    <path
       sodipodi:type="arc"
       style="fill:none;stroke:#000000;stroke-width:4.9000001;stroke-miterlimit:4;stroke-opacity:1;stroke-dasharray:none;stroke-dashoffset:0"
       id="path2995-9-9"
       sodipodi:cx="128.54192"
       sodipodi:cy="136.09254"
       sodipodi:rx="89.651039"
       sodipodi:ry="89.651039"
       d="m 218.19296,136.09254 c 0,49.51291 -40.13814,89.65104 -89.65104,89.65104 l 0,-89.65104 z"
       transform="matrix(1,0,0,-1,378.08007,1082.9061)"
       sodipodi:start="0"
       sodipodi:end="1.5707963" />
    <path
       sodipodi:type="arc"
       style="fill:#ff8000;fill-opacity:1;stroke:#000000;stroke-width:4.9000001;stroke-miterlimit:4;stroke-opacity:1;stroke-dasharray:none;stroke-dashoffset:0"
       id="path2995-1-4-8"
       sodipodi:cx="128.54192"
       sodipodi:cy="136.09254"
       sodipodi:rx="89.651039"
       sodipodi:ry="89.651039"
       d="m 218.19296,136.09254 c 0,49.51291 -40.13814,89.65104 -89.65104,89.65104 l 0,-89.65104 z"
       transform="matrix(-1,0,0,-1,620.64296,1082.9061)"
       sodipodi:start="0"
       sodipodi:end="1.5707963" />
    <path
       sodipodi:type="arc"
       style="fill:#ff8000;fill-opacity:1;stroke:#000000;stroke-width:4.9000001;stroke-miterlimit:4;stroke-opacity:1;stroke-dasharray:none;stroke-dashoffset:0"
       id="path2995-6"
       sodipodi:cx="128.54192"
       sodipodi:cy="136.09254"
       sodipodi:rx="89.651039"
       sodipodi:ry="89.651039"
       d="m 218.19296,136.09254 c 0,49.51291 -40.13814,89.65104 -89.65104,89.65104 l 0,-89.65104 z"
       transform="translate(578.08007,824.1686)"
       sodipodi:start="0"
       sodipodi:end="1.5707963" />
    <path
       sodipodi:type="arc"
       style="fill:#ff8000;fill-opacity:1;stroke:#000000;stroke-width:4.9000001;stroke-miterlimit:4;stroke-opacity:1;stroke-dasharray:none;stroke-dashoffset:0"
       id="path2995-1-03"
       sodipodi:cx="128.54192"
       sodipodi:cy="136.09254"
       sodipodi:rx="89.651039"
       sodipodi:ry="89.651039"
       d="m 218.19296,136.09254 c 0,49.51291 -40.13814,89.65104 -89.65104,89.65104 l 0,-89.65104 z"
       transform="matrix(-1,0,0,1,820.64296,824.1686)"
       sodipodi:start="0"
       sodipodi:end="1.5707963" />
    <path
       sodipodi:type="arc"
       style="fill:#ff8000;fill-opacity:1;stroke:#000000;stroke-width:4.9000001;stroke-miterlimit:4;stroke-opacity:1;stroke-dasharray:none;stroke-dashoffset:0"
       id="path2995-9-12"
       sodipodi:cx="128.54192"
       sodipodi:cy="136.09254"
       sodipodi:rx="89.651039"
       sodipodi:ry="89.651039"
       d="m 218.19296,136.09254 c 0,49.51291 -40.13814,89.65104 -89.65104,89.65104 l 0,-89.65104 z"
       transform="matrix(1,0,0,-1,578.08007,1082.9061)"
       sodipodi:start="0"
       sodipodi:end="1.5707963" />
    <path
       sodipodi:type="arc"
       style="fill:#ff8000;fill-opacity:1;stroke:#000000;stroke-width:4.9000001;stroke-miterlimit:4;stroke-opacity:1;stroke-dasharray:none;stroke-dashoffset:0"
       id="path2995-1-4-50"
       sodipodi:cx="128.54192"
       sodipodi:cy="136.09254"
       sodipodi:rx="89.651039"
       sodipodi:ry="89.651039"
       d="m 218.19296,136.09254 c 0,49.51291 -40.13814,89.65104 -89.65104,89.65104 l 0,-89.65104 z"
       transform="matrix(-1,0,0,-1,820.64296,1082.9061)"
       sodipodi:start="0"
       sodipodi:end="1.5707963" />
    <rect
       style="fill:none;stroke:#000000;stroke-width:1.01883948;stroke-miterlimit:4;stroke-opacity:1;stroke-dasharray:none;stroke-dashoffset:0"
       id="rect4840"
       width="798.98114"
       height="798.98114"
       x="-0.4905799"
       y="253.87161" />
    <path
       style="fill:none;stroke:#000000;stroke-width:1.10903537px;stroke-linecap:butt;stroke-linejoin:miter;stroke-opacity:1"
       d="m 199.3545,253.91757 0,798.89003"
       id="path4842"
       inkscape:connector-curvature="0" />
    <path
       style="fill:none;stroke:#000000;stroke-width:1.10903537px;stroke-linecap:butt;stroke-linejoin:miter;stroke-opacity:1"
       d="m 399.35452,253.91763 0,798.89007"
       id="path4842-9"
       inkscape:connector-curvature="0" />
    <path
       style="fill:none;stroke:#000000;stroke-width:1.10903537px;stroke-linecap:butt;stroke-linejoin:miter;stroke-opacity:1"
       d="m 599.35452,253.91763 0,798.89007"
       id="path4842-95"
       inkscape:connector-curvature="0" />
    <path
       style="fill:none;stroke:#000000;stroke-width:1.10903537px;stroke-linecap:butt;stroke-linejoin:miter;stroke-opacity:1"
       d="m 798.44454,653.40766 -798.89002197,0"
       id="path4842-5"
       inkscape:connector-curvature="0" />
    <path
       style="fill:none;stroke:#000000;stroke-width:1.10903537px;stroke-linecap:butt;stroke-linejoin:miter;stroke-opacity:1"
       d="m 798.44457,453.40766 -798.89005197,0"
       id="path4842-9-5"
       inkscape:connector-curvature="0" />
    <path
       style="fill:none;stroke:#000000;stroke-width:1.10903537px;stroke-linecap:butt;stroke-linejoin:miter;stroke-opacity:1"
       d="m 798.44458,853.40766 -798.89006197,0"
       id="path4842-95-6"
       inkscape:connector-curvature="0" />
  </g>
</svg>
